<?xml version="1.0" encoding="utf-8"?>
<!-- Generator: Adobe Illustrator 18.0.0, SVG Export Plug-In . SVG Version: 6.00 Build 0)  -->
<!DOCTYPE svg PUBLIC "-//W3C//DTD SVG 1.1//EN" "http://www.w3.org/Graphics/SVG/1.1/DTD/svg11.dtd">
<svg version="1.1" id="Layer_1" xmlns="http://www.w3.org/2000/svg" xmlns:xlink="http://www.w3.org/1999/xlink" x="0px" y="0px"
	 width="128px" height="128px" viewBox="0 0 128 128" enable-background="new 0 0 128 128" xml:space="preserve">
<g>
	<rect x="-0.4" y="0.2" fill="#8E8787" width="128.9" height="127.6"/>
	<g>
		<g>
			<g id="Shadow_2_" opacity="0.302">
				<g>
					<path d="M110.4,38.8H63.1c-1.9,0-3.5,1.6-3.5,3.5v45.5c0,1.9,1.6,3.5,3.5,3.5h47.3c1.9,0,3.5-1.6,3.5-3.5V42.3
						C113.9,40.3,112.2,38.8,110.4,38.8z"/>
				</g>
			</g>
			<g id="Background_3_">
				<g>
					<path fill="#ECEAE0" d="M110.4,37H63.1c-1.9,0-3.5,1.6-3.5,3.5v44.7l0,0v0.9c0,1.9,1.6,3.5,3.5,3.5h47.3c1.9,0,3.5-1.6,3.5-3.5
						V40.5C113.9,38.6,112.2,37,110.4,37z"/>
				</g>
			</g>
			<g id="Sky_2_">
				<g>
					<path fill="#98DCF0" d="M107.8,40.5h-42c-1.5,0-2.6,1.2-2.6,2.6v25.4h47.3V43.1C110.4,41.7,109.2,40.5,107.8,40.5z"/>
				</g>
			</g>
			<g id="Mountain_back_2_">
				<g>
					<polygon fill="#699B54" points="92.4,58 83.4,68.5 101.6,68.5 					"/>
				</g>
			</g>
			<g id="Mountain__x26__griund_2_">
				<g>
					<path fill="#80BB67" d="M90.9,68.5l-12.2-14l-12.2,14H63v6.1c0,1.5,1.2,2.6,2.6,2.6h42c1.5,0,2.6-1.2,2.6-2.6v-6.1H90.9z"/>
				</g>
			</g>
			<g id="Sun_2_">
				<g>
					<circle fill="#FFE68E" cx="101.5" cy="49.3" r="3.5"/>
				</g>
			</g>
		</g>
		<g>
			<g>
				<path fill="#635E5E" d="M35.9,77.5l-6.1,6c-1,1-2.3,1.5-3.7,1.5s-2.7-0.6-3.7-1.6c-2-2.1-2-5.4,0.1-7.5l6.1-6c0,0,0,0,0.1,0
					l7.3-7.2c-1.1-0.4-2.3-0.6-3.6-0.6c-3.1,0-6,1.2-8.2,3.3l-6.1,6c-4.6,4.5-4.6,11.8-0.1,16.4c2.2,2.2,5.1,3.4,8.2,3.5
					c3.1,0,6-1.2,8.2-3.3l6.1-6c2.2-2.2,3.4-5.1,3.5-8.2c0-1.2-0.2-2.4-0.6-3.6L35.9,77.5L35.9,77.5z"/>
				<path fill="#635E5E" d="M55.6,39.3c-3.1,0-6,1.2-8.2,3.3l-6.1,6c-3.2,3.2-4.2,7.7-2.9,11.7l7.3-7.2c0,0,0,0,0.1-0.1l6.1-6
					c1-1,2.3-1.5,3.7-1.5s2.7,0.6,3.7,1.6s1.5,2.3,1.5,3.7c0,1.4-0.6,2.7-1.6,3.7l-6.1,6c0,0,0,0-0.1,0l-7.3,7.2
					c1.1,0.4,2.3,0.6,3.6,0.6c3.1,0,6-1.2,8.2-3.3l6.1-6c2.2-2.2,3.4-5.1,3.5-8.2c0-3.1-1.2-6-3.3-8.2
					C61.6,40.6,58.7,39.4,55.6,39.3z"/>
				<path fill="#635E5E" d="M29.2,77.4c0.9,0.9,2.8,0.5,4.3-1l16.9-16.7c1.5-1.5,1.9-3.4,1-4.3s-2.8-0.5-4.3,1L30.2,73.1
					C28.8,74.5,28.2,76.4,29.2,77.4z"/>
			</g>
			<g>
				<path fill="#ECEAE0" d="M34.7,76.3l-6.1,6c-1,1-2.3,1.5-3.7,1.5s-2.7-0.6-3.7-1.6c-2-2.1-2-5.4,0.1-7.5l6.1-6c0,0,0,0,0.1,0
					l7.3-7.2c-1.1-0.4-2.3-0.6-3.6-0.6c-3.1,0-6,1.2-8.2,3.3l-6.1,6c-4.6,4.5-4.6,11.8-0.1,16.4c2.2,2.2,5.1,3.4,8.2,3.5
					c3.1,0,6-1.2,8.2-3.3l6.1-6c2.2-2.2,3.4-5.1,3.5-8.2c0-1.2-0.2-2.4-0.6-3.6L34.7,76.3C34.8,76.3,34.8,76.3,34.7,76.3z"/>
				<path fill="#ECEAE0" d="M54.4,38.1c-3.1,0-6,1.2-8.2,3.3l-6.1,6c-3.2,3.2-4.2,7.7-2.9,11.7l7.3-7.2c0,0,0,0,0.1-0.1l6.1-6
					c1-1,2.3-1.5,3.7-1.5s2.7,0.6,3.7,1.6s1.5,2.3,1.5,3.7c0,1.4-0.6,2.7-1.6,3.7l-6.1,6c0,0,0,0-0.1,0l-7.3,7.2
					c1.1,0.4,2.3,0.6,3.6,0.6c3.1,0,6-1.2,8.2-3.3l6.1-6c2.2-2.2,3.4-5.1,3.5-8.2c0-3.1-1.2-6-3.3-8.2
					C60.4,39.4,57.4,38.1,54.4,38.1z"/>
				<path fill="#ECEAE0" d="M27.9,76.1c0.9,0.9,2.8,0.5,4.3-1l16.9-16.7c1.5-1.5,1.9-3.4,1-4.3s-2.8-0.5-4.3,1L28.9,71.8
					C27.6,73.3,27.1,75.2,27.9,76.1z"/>
			</g>
		</g>
	</g>
</g>
</svg>
